PathFileType	4	(X/Y/Z)	C:/Users/beibeiliu/ov580/test_trc/User3\sequence.19_training_dense_left.trc
DataRate	CameraRate	NumFrames	NumMarkers	Units	OrigDataRate	OrigDataStartFrame	OrigNumFrames
120	120	21	19	mm	120	104	275
Frame#	Time	ThumbCMC			ThumbMCP			ThumbIP			ThumbTip			IndexMCP			IndexPIP			IndexTip			MiddleMCP			MiddlePIP			MiddleTip			RingMCP			RingPIP			RingTip			PinkyMCP			PinkyPIP			PinkyTip			BackHand1			BackHand2			BackHand3	
		X0	Y0	Z0	X1	Y1	Z1	X2	Y2	Z2	X3	Y3	Z3	X4	Y4	Z4	X5	Y5	Z5	X6	Y6	Z6	X7	Y7	Z7	X8	Y8	Z8	X9	Y9	Z9	X10	Y10	Z10	X11	Y11	Z11	X12	Y12	Z12	X13	Y13	Z13	X14	Y14	Z14	X15	Y15	Z15	X16	Y16	Z16	X17	Y17	Z17	X18	Y18	Z18	
103	0.858333	-167.352	-46.9074	9.59864	-153.832	-50.615	-12.3544	-133.456	-51.8993	-33.2029	-117.686	-52.8877	-47.0571	-193.034	-43.1834	-65.6148	-198.73	-49.1258	-90.3081	-206.433	-54.9294	-114.619	-214.357	-67.5132	-58.5442	-211.594	-99.01	-46.099	-199.945	-87.0891	-13.9122	-226.979	-70.7412	-43.0204	-220.587	-94.6613	-24.8872	-207.338	-73.8303	0.0905514	-241.826	-68.8366	-32	-227.843	-88.2284	-16.5348	-216.529	-69.873	7.22447	-222.284	-23.0149	-12.598	-215.982	-17.5038	17.2009	-188.181	-23.0817	-1.94858	
104	0.866667	-163.957	-49.2485	13.3586	-151.864	-55.2401	-12.6945	-131.126	-58.3666	-32.7911	-114.228	-59.3461	-47.3801	-190.342	-52.0501	-64.5029	-198.947	-60.8696	-88.9724	-208.502	-68.5806	-112.38	-214.254	-74.9008	-53.7775	-210.329	-105.303	-41.4122	-197.353	-86.338	-6.77589	-227.356	-79.9062	-38.5936	-220.016	-99.9066	-20.2856	-204.16	-78.4907	3.67785	-240.238	-70.8262	-26.6827	-227.336	-92.2708	-11.4493	-216.859	-74.3988	12.1301	-221.352	-25.0854	-12.489	-215.824	-16.2366	21.7655	-182.348	-27.8485	0.340353	
105	0.875	-162.62	-50.9222	11.7545	-148.985	-59.9665	-8.60089	-133.019	-64.0765	-32.1737	-117.042	-68.1123	-40.5292	-186.259	-61.0376	-62.2017	-196.264	-70.306	-81.9629	-204.007	-81.8155	-108.647	-207.079	-81.115	-51.3193	-207.274	-110.365	-36.5783	-193.992	-91.4269	-2.20848	-223.985	-78.826	-34.6921	-215.403	-103.678	-12.5304	-201.447	-79.2444	9.14993	-240.051	-77.7449	-21.7978	-227.222	-95.9409	-4.90417	-211.814	-77.061	11.8572	-214.026	-29.3982	-11.5075	-209.556	-18.4648	20.3167	-184.181	-31.1167	-2.51402	
106	0.883333	-155.453	-51.9861	15.2762	-143.474	-62.122	-3.39129	-128.69	-67.985	-28.5882	-111.608	-72.2103	-42.4337	-186.224	-67.0119	-61.591	-193.039	-77.8027	-81.1175	-202.571	-90.0342	-101.313	-207.974	-87.7204	-47.4405	-205.578	-112.617	-29.5903	-195.393	-90.6463	3.48895	-221.56	-82.1949	-31.2102	-218.246	-103.81	-8.69526	-203.869	-83.1298	13.3248	-234.428	-82.0851	-19.7753	-226.766	-96.58	1.87552	-211.517	-71.7435	18.9534	-215.065	-32.0571	-11.1952	-207.957	-18.89	21.8	-176.67	-31.8711	0.976206	
107	0.891667	-156.404	-52.0364	19.0955	-143.422	-62.3347	-6.24882	-128.053	-69.061	-24.3933	-109.49	-72.8051	-36.8498	-181.765	-68.3494	-56.1721	-191.398	-81.1835	-76.593	-202.382	-94.6948	-96.377	-205.954	-90.2924	-43.0343	-202.126	-114.873	-22.6239	-193.249	-94.1121	5.64206	-221.011	-86.1622	-26.9325	-218.537	-105.512	-4.3733	-198.882	-84.0399	16.0388	-233.87	-82.4499	-17.192	-223.022	-96.6978	2.50277	-208.495	-74.5249	18.4932	-214.238	-31.996	-9.5084	-206.535	-19.1714	22.0611	-175.818	-30.4411	0.215081	
108	0.9	-154.449	-50.0862	20.1644	-144.562	-62.0392	-3.1032	-124.387	-68.1345	-22.0036	-109.201	-73.5898	-31.3325	-180.019	-70.5352	-54.6747	-188.332	-84.149	-74.6338	-195.722	-100.607	-96.5157	-200.958	-92.8902	-41.4685	-198.832	-116.114	-17.4758	-187.347	-91.4428	9.25522	-218.798	-91.1125	-24.0556	-214.714	-106.566	-1.00388	-197.455	-82.3778	18.0039	-231.856	-84.3734	-13.7853	-220.04	-97.3904	8.8061	-205.541	-77.0248	21.1963	-209.984	-32.8875	-9.73823	-205.024	-18.4531	18.7565	-176.575	-32.7784	0.669695	
109	0.908333	-154.84	-48.7392	19.5399	-138.243	-58.9361	1.31306	-123.341	-67.6705	-18.3729	-104.694	-70.9915	-30.2968	-180.219	-74.287	-52.2349	-183.378	-87.3661	-69.2474	-189.475	-102.906	-88.71	-198.136	-90.3976	-36.995	-195.366	-118.476	-15.1582	-188.775	-94.5797	12.3811	-214.697	-91.346	-22.0528	-208.127	-106.352	4.75844	-197.654	-83.3106	21.8253	-230.516	-87.8561	-11.597	-214.803	-98.8231	8.56821	-205.791	-74.7699	24.9579	-210.485	-33.4799	-5.8997	-204.756	-16.7388	20.5972	-174.195	-29.6145	3.76315	
110	0.916667	-151.71	-44.0149	25.6439	-135.992	-55.915	2.12221	-120.595	-63.5289	-16.7646	-104.928	-67.0555	-28.6581	-174.811	-75.402	-48.326	-180.812	-93.0565	-67.327	-182.823	-106.962	-84.2154	-192.944	-95.8396	-34.0276	-191.125	-119.309	-10.7774	-182.296	-90.3109	17.6355	-208.809	-93.4759	-19.59	-203.636	-108.806	6.49645	-194.453	-81.6517	25.0973	-224.527	-89.2707	-10.3525	-212.726	-101.013	10.6627	-203.571	-77.4893	23.6213	-211.341	-35.885	-5.15478	-208.363	-18.1271	21.5708	-173.82	-28.5666	4.47987	
111	0.925	-152.778	-40.3513	26.3649	-138.075	-51.4752	10.4617	-118.359	-56.8412	-9.62189	-100.475	-59.7223	-19.3009	-168.119	-76.0198	-45.5744	-171.21	-92.4973	-63.1355	-174.03	-113.059	-81.7586	-184.538	-97.7043	-32.2571	-183.089	-119.825	-9.27676	-179.315	-91.4763	20.2619	-204.326	-96.552	-15.4913	-198.418	-110.436	10.3738	-190.453	-82.5409	27.4082	-222.883	-91.389	-8.61407	-209.911	-105.837	13.5336	-201.304	-75.6229	29.1853	-207.908	-41.3814	-9.12155	-207.983	-20.5988	20.0812	-177.883	-28.1779	6.81113	
112	0.933333	-150.562	-34.3244	30.2218	-134.5	-46.1868	11.1866	-115.435	-50.9424	-6.10296	-95.3345	-52.1746	-14.8635	-159.685	-73.8724	-42.2736	-157.138	-93.5342	-62.3496	-159.509	-114.435	-79.9049	-180.42	-95.1637	-27.998	-168.881	-119.039	-6.77194	-170.188	-92.5712	22.9185	-194.615	-99.3892	-13.4515	-188.363	-110.861	12.5144	-183.235	-82.6421	29.5819	-211.119	-97.8329	-6.35896	-199.704	-105.954	13.4535	-195.769	-77.1451	28.1852	-208.139	-41.5395	-5.55096	-209.245	-23.5175	17.6731	-176.643	-26.6712	4.70318	
113	0.941667	-150.009	-30.7437	29.1327	-135.033	-39.7684	15.883	-111.529	-42.7079	-1.726	-92.4853	-42.5122	-11.3666	-153.519	-71.1719	-38.364	-149.393	-92.0693	-59.2471	-146.329	-111.993	-75.3229	-170.318	-99.258	-23.8015	-157.87	-115.762	-1.47676	-166.681	-83.5251	26.4886	-184.143	-100.263	-11.3167	-176.692	-109.205	14.6992	-178.648	-78.0323	33.3541	-204.403	-97.783	-4.18233	-191.196	-104.836	21.6374	-192.193	-74.8922	32.8775	-201.815	-43.7785	-8.15812	-213.753	-24.7096	18.1747	-175.979	-24.0217	8.26816	
114	0.95	-154.866	-25.0635	34.5251	-133.47	-35.2447	14.2635	-110.993	-35.8965	-1.92038	-93.7513	-36.3688	-8.58325	-147.103	-66.8231	-36.477	-139.239	-87.8283	-53.5508	-137.405	-106.564	-66.752	-157.7	-91.5452	-21.0005	-149.522	-109.558	7.57706	-155.066	-82.4602	29.97	-176.794	-100.805	-7.93993	-167.858	-107.742	16.9523	-170.731	-80.0311	36.7509	-195.005	-96.3557	-2.94295	-180.004	-104.221	20.5953	-185.875	-77.345	35.8406	-203.064	-44.8542	-2.98854	-213.922	-29.607	16.639	-179.879	-22.0635	8.46606	
115	0.958333	-155.194	-22.0124	32.8897	-135.586	-29.3197	20.1038	-108.682	-27.0878	1.70556	-92.4832	-25.5225	-5.98549	-140.528	-61.6382	-33.071	-129.158	-82.9757	-50.4591	-120.953	-99.8469	-61.6754	-151.467	-90.4124	-17.4218	-140.777	-104.202	11.868	-148.945	-76.2495	31.9167	-166.591	-93.2092	-7.11853	-156.152	-102.135	24.5875	-163.132	-75.0038	38.3204	-183.67	-100.643	0.810672	-172.878	-103.132	25.7672	-176.014	-73.5267	36.6929	-199.39	-48.1191	-4.50105	-211.345	-29.1864	17.0657	-174.764	-20.0399	8.4848	
116	0.966667	-155.996	-14.7555	35.796	-132.054	-21.9972	17.0278	-110.032	-17.9993	5.65427	-91.6207	-16.2226	-6.78139	-135.291	-57.147	-29.3667	-123.137	-74.6949	-44.0904	-108.315	-94.2064	-57.33	-143.275	-83.6247	-15.1577	-126.099	-95.8955	13.3283	-145.658	-70.1527	34.8158	-158.628	-91.2332	-3.888	-145.409	-96.7837	26.041	-158.377	-71.5841	42.1704	-172.039	-97.2601	3.04294	-161.994	-101.478	27.6733	-169.914	-73.9766	42.0923	-193.515	-45.6428	-5.73583	-213.213	-32.0281	15.9762	-177.489	-15.8939	8.92134	
117	0.975	-155.495	-8.88414	36.3943	-130.627	-11.892	19.1903	-111.527	-9.27857	6.20103	-93.7561	-5.11984	-3.76524	-128.538	-52.5891	-29.0346	-110.003	-66.5774	-42.0421	-95.3438	-85.2164	-52.9989	-134.016	-77.0578	-13.261	-118.576	-89.6441	13.3345	-137.173	-66.8512	37.1748	-145.488	-84.8499	-1.00178	-134.119	-91.3289	25.0485	-151.191	-65.3087	43.0968	-165.679	-95.2238	5.48653	-150.844	-95.7108	30.5257	-160.188	-68.9081	44.246	-188.54	-48.575	-5.37105	-208.122	-30.432	19.7396	-178.121	-18.4813	7.54743	
118	0.983333	-158.032	-6.80689	33.7761	-132.988	-6.50126	17.2215	-113.171	-2.62463	2.18474	-94.7425	9.38544	-2.71064	-122.283	-42.9782	-27.7339	-102.339	-57.6123	-39.9879	-87.0708	-73.5424	-48.6887	-125.129	-68.0461	-12.6794	-106.229	-78.2051	12.3867	-130.107	-58.3267	38.4205	-137.325	-84.1137	2.22784	-127.921	-86.0005	28.6951	-147.003	-58.4088	44.8773	-155.595	-91.4398	7.14034	-141.117	-92.1306	30.9451	-151.695	-64.8051	44.6918	-188.254	-48.6078	-3.78345	-208.416	-34.2344	18.0008	-177.264	-12.6629	9.95731	
119	0.991667	-160.136	-2.90632	32.1434	-136.036	2.02105	16.2762	-115.06	8.59017	-0.0106634	-98.8221	17.7008	-7.02294	-120.78	-34.3235	-24.9541	-99.9129	-46.776	-36.8523	-79.2989	-62.7694	-47.0885	-120.153	-64.6187	-12.8167	-101.104	-70.7415	16.0744	-126.603	-50.6985	40.6206	-131.043	-77.174	1.19154	-119.073	-75.9143	29.9242	-141.088	-55.994	45.6141	-146.718	-86.9301	7.91579	-134.035	-84.9933	32.7382	-147.811	-59.0163	43.0627	-183.242	-49.5062	-6.34847	-206.157	-38.2059	15.7952	-181.113	-14.0074	7.70505	
120	1	-163.911	4.49263	31.5835	-142.695	3.81988	17.1434	-120.555	12.3227	-1.30668	-107.474	22.8461	-7.75396	-119.662	-32.4392	-28.3197	-99.8892	-41.1481	-36.6488	-77.4473	-50.9204	-47.062	-121.08	-57.6733	-13.149	-97.9342	-61.8859	13.9475	-121.226	-47.6696	38.9707	-130.649	-68.4342	-0.728944	-115.694	-70.7188	27.5339	-141.041	-49.7786	45.4288	-139.928	-81.2326	8.31843	-127.634	-75.3667	32.5614	-143.59	-58.5898	45.6173	-185.111	-48.4408	-3.03586	-206.138	-38.9696	17.0001	-177.862	-11.0952	4.34491	
121	1.00833	-167.386	8.6251	28.2461	-147.717	10.8221	15.0691	-128.434	20.982	-5.34899	-114.556	35.0607	-16.7512	-121.791	-28.4269	-28.7923	-100.312	-34.6214	-38.4221	-74.749	-46.6179	-47.7769	-115.335	-52.1368	-13.0072	-95.1951	-51.5656	9.43487	-120.319	-42.6997	38.9785	-128.839	-66.989	1.52372	-116.053	-65.8236	29.6792	-139.79	-46.6948	44.804	-140.384	-79.0599	8.12567	-125.771	-73.5939	32.7527	-145.526	-55.0413	45.5696	-180.865	-47.3373	-4.54448	-207.49	-39.29	17.8659	-184.042	-10.8228	3.78928	
122	1.01667	-175.342	7.70446	27.3997	-155.115	14.5064	7.77078	-136.747	29.5517	-12.9439	-127.171	41.413	-22.7145	-123.146	-21.9606	-32.4765	-103.028	-25.2919	-40.0698	-79.257	-30.2136	-49.149	-117.234	-44.6697	-15.1557	-96.4969	-41.9464	10.4321	-124.34	-29.1846	37.3614	-125.033	-60.621	1.61058	-114.415	-56.1213	30.1165	-139.663	-40.8744	43.4106	-133.133	-73.7591	10.4591	-124.029	-64.1536	32.2384	-145.82	-45.1123	41.5998	-181.326	-49.8887	-5.47113	-209.025	-40.2846	15.2046	-187.06	-9.25371	2.55104	
123	1.025	-181.027	13.4215	18.8962	-163.19	19.5321	-0.436272	-148.453	30.7361	-20.0966	-141.03	46.7346	-27.2283	-129.241	-12.9438	-35.0652	-104.12	-18.8182	-46.3633	-78.23	-20.6047	-54.6297	-118.631	-35.6745	-17.4925	-99.2612	-33.6682	9.14277	-126.816	-20.207	33.7215	-127.434	-50.2772	-2.72841	-114.187	-44.9275	27.2658	-142.567	-30.0151	39.1685	-135.481	-65.4356	8.35135	-123.779	-51.6954	31.0201	-147.457	-40.4769	43.7805	-185.11	-48.8558	-3.18925	-206.95	-40.4069	13.2644	-194.368	-13.6179	0.782387	
